<?xml version="1.0" encoding="iso-8859-1"?>
<!-- Generator: Adobe Illustrator 21.1.0, SVG Export Plug-In . SVG Version: 6.00 Build 0)  -->
<svg version="1.1" id="Layer_1" xmlns="http://www.w3.org/2000/svg" xmlns:xlink="http://www.w3.org/1999/xlink" x="0px" y="0px"
	 viewBox="0 0 24 24" enable-background="new 0 0 24 24" xml:space="preserve">
<g>
	<path fill="#303C42" d="M17,10V8.5C17,8.2236328,16.7763672,8,16.5,8h-1.5459595
		c-0.1505127-1.4594116-0.7161865-6.0161133-2.0541382-7.7998047C12.8056641,0.0742188,12.6572266,0,12.5,0h-1
		c-0.1572266,0-0.3056641,0.0742188-0.3999023,0.2001953C9.762146,1.9838867,9.1964722,6.5405884,9.0459595,8H7.5
		C7.2236328,8,7,8.2236328,7,8.5V10c-1.1030273,0-2,0.8969727-2,2v10c0,1.1030273,0.8969727,2,2,2h10c1.1030273,0,2-0.8969727,2-2
		V12C19,10.8969727,18.1030273,10,17,10z"/>
	<path fill="#E53A35" d="M11.7631836,1h0.4741211c1.0498047,1.6619873,1.5554199,5.5648804,1.7106934,7h-3.897583
		C10.2454834,6.1557617,10.7977295,2.5395508,11.7631836,1z"/>
	<path opacity="0.2" fill="#FFFFFF" d="M11.7631836,1c-0.9654541,1.5395508-1.5177002,5.1557617-1.7127686,7h1.447998
		c0.0501099-1.8442383,0.1920166-5.4604492,0.4401245-7H11.7631836z"/>
	<path opacity="0.1" fill="#010101" d="M12.2373047,1h-0.1769409C12.3301392,2.6619873,12.460083,6.5648804,12.5,8h1.447998
		C13.7927246,6.5648804,13.2871094,2.6619873,12.2373047,1z"/>
	<rect x="8" y="9" fill="#E53A35" width="8" height="1"/>
	<rect x="8" y="9" opacity="0.2" fill="#FFFFFF" width="2" height="1"/>
	<rect x="14.5" y="9" opacity="0.1" fill="#010101" width="1.5" height="1"/>
	<path fill="#FAFBFB" d="M18,22c0,0.5512695-0.4487305,1-1,1H7c-0.5512695,0-1-0.4487305-1-1V12c0-0.5512695,0.4487305-1,1-1h0.5h9
		H17c0.5512695,0,1,0.4487305,1,1V22z"/>
	<path fill="#303C42" d="M11.6464844,13.1464844C11.5385742,13.2543945,9,15.8178711,9,18c0,1.6542969,1.3457031,3,3,3
		s3-1.3457031,3-3c0-2.1821289-2.5385742-4.7456055-2.6464844-4.8535156
		C12.1660156,12.9589844,11.8339844,12.9589844,11.6464844,13.1464844z"/>
	<path fill="#E6E6E5" d="M12,20c-1.1030273,0-2-0.8969727-2-2c0-1.2480469,1.2299805-2.8989258,2-3.7680664
		C12.7700195,15.1010742,14,16.7519531,14,18C14,19.1030273,13.1030273,20,12,20z"/>
	<path opacity="0.1" fill="#010101" d="M12.4592285,14.7855225C12.7730103,15.3696289,13,15.970459,13,16.5
		c0,1.1030273-0.8969727,2-2,2c-0.3562622,0-0.6862183-0.1013184-0.9762573-0.2651978C10.1415405,19.2261963,10.977356,20,12,20
		c1.1030273,0,2-0.8969727,2-2C14,16.9798584,13.1798706,15.6970825,12.4592285,14.7855225z"/>
	<linearGradient id="SVGID_1_" gradientUnits="userSpaceOnUse" x1="12.1140442" y1="17.9587097" x2="17.2843933" y2="23.1290588">
		<stop  offset="0" style="stop-color:#010101;stop-opacity:0.1"/>
		<stop  offset="1" style="stop-color:#010101;stop-opacity:0"/>
	</linearGradient>
	<path fill="url(#SVGID_1_)" d="M14.3341064,15.7896729l-0.00177,0.0016479C14.7140503,16.5,15,17.2705688,15,18
		c0,1.6542969-1.3457031,3-3,3c-0.8085938,0-1.5404663-0.3248901-2.0805054-0.8467407L12.7662354,23H17c0.5512695,0,1-0.4487305,1-1
		v-2.5444336L14.3341064,15.7896729z"/>
	<linearGradient id="SVGID_2_" gradientUnits="userSpaceOnUse" x1="5.6488748" y1="10.1651697" x2="21.3182087" y2="17.4719009">
		<stop  offset="0" style="stop-color:#FFFFFF;stop-opacity:0.2"/>
		<stop  offset="1" style="stop-color:#FFFFFF;stop-opacity:0"/>
	</linearGradient>
	<path fill="url(#SVGID_2_)" d="M17,10V8.5C17,8.2236328,16.7763672,8,16.5,8h-1.5459595
		c-0.1505127-1.4594116-0.7161865-6.0161133-2.0541382-7.7998047C12.8056641,0.0742188,12.6572266,0,12.5,0h-1
		c-0.1572266,0-0.3056641,0.0742188-0.3999023,0.2001953C9.762146,1.9838867,9.1964722,6.5405884,9.0459595,8H7.5
		C7.2236328,8,7,8.2236328,7,8.5V10c-1.1030273,0-2,0.8969727-2,2v10c0,1.1030273,0.8969727,2,2,2h10c1.1030273,0,2-0.8969727,2-2
		V12C19,10.8969727,18.1030273,10,17,10z"/>
</g>
<g>
</g>
<g>
</g>
<g>
</g>
<g>
</g>
<g>
</g>
<g>
</g>
<g>
</g>
<g>
</g>
<g>
</g>
<g>
</g>
<g>
</g>
<g>
</g>
<g>
</g>
<g>
</g>
<g>
</g>
</svg>
