<?xml version="1.0" encoding="UTF-8" standalone="no"?>
<svg
   version="1.1"
   id="svg119200"
   xml:space="preserve"
   width="1066.6667"
   height="1066.6667"
   viewBox="0 0 1066.6667 1066.6667"
   sodipodi:docname="price-tag-color-publicdomainvectors.org.svg"
   inkscape:version="1.1.2 (b8e25be833, 2022-02-05)"
   xmlns:inkscape="http://www.inkscape.org/namespaces/inkscape"
   xmlns:sodipodi="http://sodipodi.sourceforge.net/DTD/sodipodi-0.dtd"
   xmlns="http://www.w3.org/2000/svg"
   xmlns:svg="http://www.w3.org/2000/svg"><defs
     id="defs119204"><clipPath
       clipPathUnits="userSpaceOnUse"
       id="clipPath119214"><path
         d="M 0,800 H 800 V 0 H 0 Z"
         id="path119212" /></clipPath></defs><sodipodi:namedview
     id="namedview119202"
     pagecolor="#ffffff"
     bordercolor="#666666"
     borderopacity="1.0"
     inkscape:pageshadow="2"
     inkscape:pageopacity="0.0"
     inkscape:pagecheckerboard="0"
     showgrid="false"
     inkscape:zoom="0.77906244"
     inkscape:cx="533.33337"
     inkscape:cy="533.33337"
     inkscape:window-width="1920"
     inkscape:window-height="1018"
     inkscape:window-x="-8"
     inkscape:window-y="-8"
     inkscape:window-maximized="1"
     inkscape:current-layer="g119206" /><g
     id="g119206"
     inkscape:groupmode="layer"
     inkscape:label="price-tag-color-publicdomainvectors.org"
     transform="matrix(1.3333333,0,0,-1.3333333,0,1066.6667)"><g
       id="g119208"><g
         id="g119210"
         clip-path="url(#clipPath119214)"><path
           d="m 694.686,390.615 44.926,114.983 10.214,53.758 -99.215,-47.731 z"
           style="fill:#dae262;fill-opacity:1;fill-rule:nonzero;stroke:none"
           id="path119216" /><path
           d="m 712.582,376.18 c 2.489,4.672 4.295,9.791 5.337,15.256 0,0.037 0.014,0.064 0.02,0.101 l 0.639,3.356 -23.892,-4.278 z"
           style="fill:#74e0e0;fill-opacity:1;fill-rule:nonzero;stroke:none"
           id="path119218" /><path
           d="M 718.578,394.893 739.612,505.598 694.686,390.615 Z"
           style="fill:#afdf7b;fill-opacity:1;fill-rule:nonzero;stroke:none"
           id="path119220" /><path
           d="m 639.586,635.76 49.06,52.592 -54.603,19.3 2.178,-72.53 c 1.119,0.254 2.24,0.468 3.365,0.638"
           style="fill:#df2200;fill-opacity:1;fill-rule:nonzero;stroke:none"
           id="path119222" /><path
           d="m 639.301,323.994 17.556,10.459 -25.189,5.131 z"
           style="fill:#14b4ec;fill-opacity:1;fill-rule:nonzero;stroke:none"
           id="path119224" /><path
           d="m 662.807,633.298 97.289,3.865 c -1.045,4.638 -2.723,9.149 -5.032,13.445 -0.381,0.715 -0.793,1.453 -1.203,2.146 v -0.022 c -6.162,10.368 -15.41,17.961 -26.638,21.939 -0.022,0.008 -0.022,0.059 -0.035,0.059 l -38.542,13.622 -49.06,-52.592 c 7.874,1.192 15.859,0.301 23.221,-2.462"
           style="fill:#dc2b00;fill-opacity:1;fill-rule:nonzero;stroke:none"
           id="path119226" /><path
           d="m 687.82,611.634 v 0.008 c 1.517,-2.712 2.752,-5.511 3.721,-8.359 l 60.594,-31.776 8.321,43.792 c 0,0.016 -0.036,0.037 -0.036,0.059 1.39,7.356 1.27,14.728 -0.324,21.805 l -97.289,-3.865 c 10.182,-3.82 19.172,-11.222 25.013,-21.664"
           style="fill:#df5e00;fill-opacity:1;fill-rule:nonzero;stroke:none"
           id="path119228" /><path
           d="m 631.668,339.584 25.189,-5.131 36.751,21.893 c 8.173,4.869 14.622,11.668 18.974,19.834 l -17.896,14.435 z"
           style="fill:#67d7ef;fill-opacity:1;fill-rule:nonzero;stroke:none"
           id="path119230" /><path
           d="m 670.38,544.494 c -7.226,-4.305 -15.091,-6.439 -22.884,-6.6 l 3.115,-26.269 99.215,47.731 2.309,12.151 -60.594,31.776 c 7.439,-21.877 -0.985,-46.774 -21.161,-58.789"
           style="fill:#e88200;fill-opacity:1;fill-rule:nonzero;stroke:none"
           id="path119232" /><path
           d="m 694.686,390.615 -44.075,121.01 -58.377,-88.534 z"
           style="fill:#dcf07c;fill-opacity:1;fill-rule:nonzero;stroke:none"
           id="path119234" /><path
           d="m 606.035,304.176 33.266,19.818 -7.633,15.59 z"
           style="fill:#31bded;fill-opacity:1;fill-rule:nonzero;stroke:none"
           id="path119236" /><path
           d="m 519.938,263.422 1.905,-9.402 84.192,50.156 25.633,35.408 z"
           style="fill:#8bebdb;fill-opacity:1;fill-rule:nonzero;stroke:none"
           id="path119238" /><path
           d="m 605.252,562.447 c -0.779,1.391 -1.481,2.806 -2.113,4.239 l -16.318,-32.252 63.79,-22.809 -3.115,26.269 c -16.797,-0.346 -33.255,8.483 -42.244,24.553"
           style="fill:#f38900;fill-opacity:1;fill-rule:nonzero;stroke:none"
           id="path119240" /><path
           d="m 631.668,339.584 63.018,51.031 -102.452,32.476 z"
           style="fill:#b7f3bb;fill-opacity:1;fill-rule:nonzero;stroke:none"
           id="path119242" /><path
           d="m 605.975,717.572 -46.528,16.445 14.616,-119.941 z"
           style="fill:#ef3500;fill-opacity:1;fill-rule:nonzero;stroke:none"
           id="path119244" /><path
           d="m 618.905,627.166 c 1.22,0.893 2.488,1.738 3.808,2.524 4.325,2.578 8.879,4.373 13.508,5.432 l -2.178,72.53 -28.068,9.92 -31.912,-103.496 z"
           style="fill:#f43800;fill-opacity:1;fill-rule:nonzero;stroke:none"
           id="path119246" /><path
           d="m 603.139,566.686 c -9.449,21.395 -2.818,46.865 15.766,60.48 l -44.842,-13.09 12.758,-79.642 z"
           style="fill:#f77700;fill-opacity:1;fill-rule:nonzero;stroke:none"
           id="path119248" /><path
           d="m 592.234,423.091 58.377,88.534 -63.79,22.809 z"
           style="fill:#f2da4a;fill-opacity:1;fill-rule:nonzero;stroke:none"
           id="path119250" /><path
           d="m 574.063,614.076 -14.616,119.941 -41.306,14.6 c -0.03,0.014 -0.057,0.014 -0.086,0.029 -3.78,1.333 -7.608,2.196 -11.438,2.603 l -64.773,-94.26 z"
           style="fill:#fb6100;fill-opacity:1;fill-rule:nonzero;stroke:none"
           id="path119252" /><path
           d="m 473.158,384.043 158.51,-44.459 -39.434,83.507 z"
           style="fill:#d8f890;fill-opacity:1;fill-rule:nonzero;stroke:none"
           id="path119254" /><path
           d="m 519.938,263.422 111.73,76.162 -158.51,44.459 z"
           style="fill:#c5f5c1;fill-opacity:1;fill-rule:nonzero;stroke:none"
           id="path119256" /><path
           d="m 476.445,744.47 -38.593,-22.992 3.992,-64.489 64.773,94.26 c -10.391,1.103 -20.783,-1.183 -30.172,-6.779"
           style="fill:#f55a00;fill-opacity:1;fill-rule:nonzero;stroke:none"
           id="path119258" /><path
           d="M 586.821,534.434 431.791,562.27 473.158,384.043 Z"
           style="fill:#ffd100;fill-opacity:1;fill-rule:nonzero;stroke:none"
           id="path119260" /><path
           d="M 592.234,423.091 586.821,534.434 473.158,384.043 Z"
           style="fill:#f9ed2d;fill-opacity:1;fill-rule:nonzero;stroke:none"
           id="path119262" /><path
           d="M 586.821,534.434 574.063,614.076 431.791,562.27 Z"
           style="fill:#fd9d00;fill-opacity:1;fill-rule:nonzero;stroke:none"
           id="path119264" /><path
           d="M 574.063,614.076 441.844,656.989 431.791,562.27 Z"
           style="fill:#ff9300;fill-opacity:1;fill-rule:nonzero;stroke:none"
           id="path119266" /><path
           d="m 461.174,271.928 58.764,-8.506 -46.78,120.621 z"
           style="fill:#cbf387;fill-opacity:1;fill-rule:nonzero;stroke:none"
           id="path119268" /><path
           d="m 461.174,271.928 34.34,-33.594 26.329,15.686 -1.905,9.402 z"
           style="fill:#96eaa2;fill-opacity:1;fill-rule:nonzero;stroke:none"
           id="path119270" /><path
           d="m 445.725,208.674 49.789,29.66 -34.34,33.594 z"
           style="fill:#9ae292;fill-opacity:1;fill-rule:nonzero;stroke:none"
           id="path119272" /><path
           d="M 473.158,384.043 431.791,562.27 342.485,420.771 Z"
           style="fill:#ffce00;fill-opacity:1;fill-rule:nonzero;stroke:none"
           id="path119274" /><path
           d="M 305.37,277.34 461.174,271.928 342.485,420.771 Z"
           style="fill:#f0d03c;fill-opacity:1;fill-rule:nonzero;stroke:none"
           id="path119276" /><path
           d="M 342.485,420.771 461.174,271.928 473.158,384.043 Z"
           style="fill:#f6e63a;fill-opacity:1;fill-rule:nonzero;stroke:none"
           id="path119278" /><path
           d="m 441.844,656.989 -3.992,64.489 -95.93,-57.148 -17.994,-21.646 z"
           style="fill:#fb6800;fill-opacity:1;fill-rule:nonzero;stroke:none"
           id="path119280" /><path
           d="m 305.37,277.34 121.269,-80.037 19.086,11.371 15.449,63.254 z"
           style="fill:#c7df6f;fill-opacity:1;fill-rule:nonzero;stroke:none"
           id="path119282" /><path
           d="M 431.791,562.27 270.576,521.29 342.485,420.771 Z"
           style="fill:#feb200;fill-opacity:1;fill-rule:nonzero;stroke:none"
           id="path119284" /><path
           d="m 341.922,664.33 -19.156,-11.413 1.162,-10.233 z"
           style="fill:#f35c00;fill-opacity:1;fill-rule:nonzero;stroke:none"
           id="path119286" /><path
           d="m 300.33,122.057 112.508,67.025 -136.463,5.137 z"
           style="fill:#c2b266;fill-opacity:1;fill-rule:nonzero;stroke:none"
           id="path119288" /><path
           d="m 276.375,194.219 136.463,-5.137 13.801,8.221 -121.269,80.037 z"
           style="fill:#d3bf53;fill-opacity:1;fill-rule:nonzero;stroke:none"
           id="path119290" /><path
           d="m 431.791,562.27 10.053,94.719 -117.916,-14.305 z"
           style="fill:#ff8500;fill-opacity:1;fill-rule:nonzero;stroke:none"
           id="path119292" /><path
           d="M 323.928,642.684 270.576,521.29 431.791,562.27 Z"
           style="fill:#fe9400;fill-opacity:1;fill-rule:nonzero;stroke:none"
           id="path119294" /><path
           d="m 322.766,652.917 -6.974,-4.155 8.136,-6.078 z"
           style="fill:#f04f00;fill-opacity:1;fill-rule:nonzero;stroke:none"
           id="path119296" /><path
           d="m 315.792,648.762 -10.128,-6.034 18.264,-0.044 z"
           style="fill:#f64e00;fill-opacity:1;fill-rule:nonzero;stroke:none"
           id="path119298" /><path
           d="M 201.373,421.544 305.37,277.34 342.485,420.771 Z"
           style="fill:#fb9b00;fill-opacity:1;fill-rule:nonzero;stroke:none"
           id="path119300" /><path
           d="M 342.485,420.771 270.576,521.29 201.373,421.544 Z"
           style="fill:#ffa300;fill-opacity:1;fill-rule:nonzero;stroke:none"
           id="path119302" /><path
           d="m 323.928,642.684 -18.264,0.044 -93.65,-55.791 58.562,-65.647 z"
           style="fill:#fd7700;fill-opacity:1;fill-rule:nonzero;stroke:none"
           id="path119304" /><path
           d="M 146.861,285.459 305.37,277.34 201.373,421.544 Z"
           style="fill:#f56500;fill-opacity:1;fill-rule:nonzero;stroke:none"
           id="path119306" /><path
           d="m 223.151,116.451 c 5.707,-5.074 12.475,-8.746 19.943,-10.806 12.99,-3.594 26.505,-1.901 38.363,5.168 l 18.873,11.244 -23.955,72.162 z"
           style="fill:#bc5024;fill-opacity:1;fill-rule:nonzero;stroke:none"
           id="path119308" /><path
           d="m 276.375,194.219 28.995,83.121 -158.509,8.119 z"
           style="fill:#e07000;fill-opacity:1;fill-rule:nonzero;stroke:none"
           id="path119310" /><path
           d="m 270.576,521.29 -111.73,-11.599 42.527,-88.147 z"
           style="fill:#ff8800;fill-opacity:1;fill-rule:nonzero;stroke:none"
           id="path119312" /><path
           d="m 270.576,521.29 -58.562,65.647 -52.097,-31.036 -1.071,-46.21 z"
           style="fill:#fd7400;fill-opacity:1;fill-rule:nonzero;stroke:none"
           id="path119314" /><path
           d="m 189.075,171.574 23.312,-41.662 c 2.909,-5.199 6.548,-9.713 10.764,-13.461 l 53.224,77.768 z"
           style="fill:#c22c00;fill-opacity:1;fill-rule:nonzero;stroke:none"
           id="path119316" /><path
           d="m 146.861,285.459 1.973,-41.963 40.241,-71.922 87.3,22.645 z"
           style="fill:#d54200;fill-opacity:1;fill-rule:nonzero;stroke:none"
           id="path119318" /><path
           d="m 159.917,555.901 -60.975,-36.325 59.904,-9.885 z"
           style="fill:#fa6200;fill-opacity:1;fill-rule:nonzero;stroke:none"
           id="path119320" /><path
           d="M 158.846,509.691 69.152,438.555 201.373,421.544 Z"
           style="fill:#ff7200;fill-opacity:1;fill-rule:nonzero;stroke:none"
           id="path119322" /><path
           d="m 69.152,438.555 77.709,-153.096 54.512,136.085 z"
           style="fill:#fc6300;fill-opacity:1;fill-rule:nonzero;stroke:none"
           id="path119324" /><path
           d="m 69.152,438.555 -0.116,-52.444 59.207,-105.814 18.618,5.162 z"
           style="fill:#f23700;fill-opacity:1;fill-rule:nonzero;stroke:none"
           id="path119326" /><path
           d="m 128.243,280.297 20.591,-36.801 -1.973,41.963 z"
           style="fill:#db2f00;fill-opacity:1;fill-rule:nonzero;stroke:none"
           id="path119328" /><path
           d="m 158.846,509.691 -59.904,9.885 -19.56,-11.654 -10.23,-69.367 z"
           style="fill:#fa6800;fill-opacity:1;fill-rule:nonzero;stroke:none"
           id="path119330" /><path
           d="m 42.346,435.087 c 0.946,-2.529 2.092,-5.01 3.442,-7.424 l 23.248,-41.552 0.116,52.444 z"
           style="fill:#f24600;fill-opacity:1;fill-rule:nonzero;stroke:none"
           id="path119332" /><path
           d="m 79.382,507.922 -15.085,-8.986 c -11.859,-7.067 -20.041,-18.289 -23.522,-31.694 -0.838,-3.229 -1.377,-6.49 -1.619,-9.748 l 29.996,-18.939 z"
           style="fill:#f55e00;fill-opacity:1;fill-rule:nonzero;stroke:none"
           id="path119334" /><path
           d="m 39.156,457.494 c -0.565,-7.603 0.495,-15.203 3.19,-22.407 l 26.806,3.468 z"
           style="fill:#f15700;fill-opacity:1;fill-rule:nonzero;stroke:none"
           id="path119336" /></g></g></g></svg>
